<svg width="38" height="38" xmlns="http://www.w3.org/2000/svg" xmlns:xlink="http://www.w3.org/1999/xlink" xml:space="preserve" overflow="hidden"><g transform="translate(-28 -284)"><g><path d="M40.6667 285.583C38.92 285.589 37.5054 287.003 37.5 288.75L37.5 306.958C37.5041 308.268 38.565 309.329 39.875 309.333L54.125 309.333C55.4349 309.329 56.4956 308.268 56.5 306.958L56.5 288.75C56.4946 287.003 55.08 285.589 53.3333 285.583ZM55.7083 289.542 55.7083 298.646 38.2917 298.646 38.2917 289.542 45.4167 289.542 45.4167 289.146C45.4167 288.927 45.5939 288.75 45.8125 288.75L48.1875 288.75C48.4061 288.75 48.5833 288.927 48.5833 289.146L48.5833 289.542ZM54.125 308.542 39.875 308.542C39.0011 308.54 38.293 307.832 38.2917 306.958L38.2917 299.438 55.7083 299.438 55.7083 306.958C55.707 307.832 54.9989 308.54 54.125 308.542ZM55.7083 288.75 49.3081 288.75C49.1396 288.276 48.6909 287.959 48.1875 287.958L45.8125 287.958C45.3094 287.959 44.8611 288.276 44.6927 288.75L38.2917 288.75C38.2934 287.439 39.3557 286.377 40.6667 286.375L53.3333 286.375C54.6444 286.377 55.7068 287.439 55.7083 288.75Z" fill="#004BA5" fill-rule="nonzero" fill-opacity="1"/><path d="M41.0625 304.188C40.1881 304.188 39.4792 304.896 39.4792 305.771 39.4792 306.645 40.1881 307.354 41.0625 307.354 41.9369 307.354 42.6458 306.645 42.6458 305.771 42.6551 304.906 41.9612 304.197 41.0959 304.188 41.0848 304.187 41.0736 304.187 41.0625 304.188ZM41.0625 306.562C40.6253 306.562 40.2708 306.208 40.2708 305.771 40.2708 305.334 40.6253 304.979 41.0625 304.979 41.4997 304.979 41.8542 305.334 41.8542 305.771 41.8639 306.198 41.5252 306.553 41.0977 306.562 41.086 306.563 41.0743 306.563 41.0625 306.562Z" fill="#004BA5" fill-rule="nonzero" fill-opacity="1"/><path d="M52.9375 304.188C52.0631 304.188 51.3542 304.896 51.3542 305.771 51.3542 306.645 52.0631 307.354 52.9375 307.354 53.8119 307.354 54.5208 306.645 54.5208 305.771 54.5301 304.906 53.8362 304.197 52.9709 304.188 52.9598 304.187 52.9486 304.187 52.9375 304.188ZM52.9375 306.562C52.5003 306.562 52.1458 306.208 52.1458 305.771 52.1458 305.334 52.5003 304.979 52.9375 304.979 53.3747 304.979 53.7292 305.334 53.7292 305.771 53.7389 306.198 53.4002 306.553 52.9727 306.562 52.961 306.563 52.9493 306.563 52.9375 306.562Z" fill="#004BA5" fill-rule="nonzero" fill-opacity="1"/><path d="M52.8223 310.521 53.3587 311.708 40.6413 311.708 41.1777 310.521 40.3104 310.521 35.6614 320.812 36.5298 320.812 37.4236 318.833 56.5764 318.833 57.4702 320.812 58.3386 320.812 53.6896 310.521ZM56.219 318.042 37.781 318.042 38.8538 315.667 55.1463 315.667ZM54.7888 314.875 39.2112 314.875 40.2839 312.5 53.7165 312.5Z" fill="#004BA5" fill-rule="nonzero" fill-opacity="1"/></g></g></svg>